# xmcd CD database file
#
# Track frame offsets:
#	150
#	12660
#	29295
#	43429
#	55051
#	76810
#	89115
#	117563
#
# Disc length: 2025 seconds
#
# Revision: 0
# Processed by: cddbd v1.5.1PL2 Copyright (c) Steve Scherf et al.
# Submitted via: CDex 1.70beta1
#
DISCID=6c07e708
DTITLE=Cotton Club Singers, Marót Viki és a Nova Kultúr Zenekar - Hangosfilm II
DYEAR=2006
DGENRE=Jazz
TTITLE0=Csak a Cha-Cha-Cha
TTITLE1=Például te
TTITLE2=Nekem a Balaton a Riviéra
TTITLE3=Pardon, bocsánat Főnök Úr
TTITLE4=Egy esős vasárnap délután
TTITLE5=Nem híres jazz énekes
TTITLE6=2x2 néha 5 (remix)
TTITLE7=klippek
EXTD=YEAR: 2006
EXTT0=
EXTT1=
EXTT2=
EXTT3=
EXTT4=
EXTT5=
EXTT6=
EXTT7=
PLAYORDER=
